# Alias OBJ Model File
# Exported from SketchUp, (c) 2000-2012 Trimble Navigation Limited
# File units = millimeters

mtllib 1e7dffce-c710-457c-8150-c3c66e390fa9.mtl

g Mesh1 Model

usemtl FrontColor
v -74.5 0 -129.038
vt 2.93307 5.08023
vn 0 -1 -0
v -38.564 0 -143.923
vt 1.51827 5.66626
v 9.12362e-15 0 -149
vt -3.59198e-16 5.86614
v 38.564 0 -143.923
vt -1.51827 5.66626
v 74.5 0 -129.038
vt -2.93307 5.08023
v 105.359 0 -105.359
vt -4.14799 4.14799
v 129.038 0 -74.5
vt -5.08023 2.93307
v 143.923 0 -38.564
vt -5.66626 1.51827
v 149 0 -0
vt -5.86614 0
v 143.923 0 38.564
vt -5.66626 -1.51827
v 129.038 0 74.5
vt -5.08023 -2.93307
v 105.359 0 105.359
vt -4.14799 -4.14799
v 74.5 0 129.038
vt -2.93307 -5.08023
v 38.564 0 143.923
vt -1.51827 -5.66626
v -2.73709e-14 0 149
vt 1.07759e-15 -5.86614
v -38.564 0 143.923
vt 1.51827 -5.66626
v -74.5 0 129.038
vt 2.93307 -5.08023
v -105.359 0 105.359
vt 4.14799 -4.14799
v -129.038 0 74.5
vt 5.08023 -2.93307
v -143.923 0 38.564
vt 5.66626 -1.51827
v -149 0 -1.82472e-14
vt 5.86614 7.18395e-16
v -143.923 0 -38.564
vt 5.66626 1.51827
v -129.038 0 -74.5
vt 5.08023 2.93307
v -105.359 0 -105.359
vt 4.14799 4.14799
f 1/1/1 2/2/1 3/3/1 4/4/1 5/5/1 6/6/1 7/7/1 8/8/1 9/9/1 10/10/1 11/11/1 12/12/1 13/13/1 14/14/1 15/15/1 16/16/1 17/17/1 18/18/1 19/19/1 20/20/1 21/21/1 22/22/1 23/23/1 24/24/1 

usemtl Metal_Aluminum_Anodized
vt -0.0141794 0
vn -0.258819 0 -0.965926
vt 0.0141794 0
vn -0.5 0 -0.866025
v -74.5 711 -129.038
vt 0.0141794 0.518373
v -38.564 711 -143.923
vt -0.0141794 0.518373
f 2/25/2 1/26/3 25/27/3 26/28/2 

vn -0.707107 0 -0.707107
v -105.359 711 -105.359
f 1/25/3 24/26/4 27/27/4 25/28/3 

vn -0.866025 0 -0.5
v -129.038 711 -74.5
f 24/25/4 23/26/5 28/27/5 27/28/4 

vn -0.965926 0 -0.258819
v -143.923 711 -38.564
f 23/25/5 22/26/6 29/27/6 28/28/5 

vn -1 0 -1.6797e-16
v -149 711 -1.82472e-14
f 22/25/6 21/26/7 30/27/7 29/28/6 

vn -0.965926 0 0.258819
v -143.923 711 38.564
f 21/25/7 20/26/8 31/27/8 30/28/7 

vn -0.866025 0 0.5
v -129.038 711 74.5
f 20/25/8 19/26/9 32/27/9 31/28/8 

vn -0.707107 0 0.707107
v -105.359 711 105.359
f 19/25/9 18/26/10 33/27/10 32/28/9 

vn -0.5 0 0.866025
v -74.5 711 129.038
f 18/25/10 17/26/11 34/27/11 33/28/10 

vn -0.258819 0 0.965926
v -38.564 711 143.923
f 17/25/11 16/26/12 35/27/12 34/28/11 

vn -3.63936e-16 0 1
v -2.73709e-14 711 149
f 16/25/12 15/26/13 36/27/13 35/28/12 

vn 0.258819 0 0.965926
v 38.564 711 143.923
f 15/25/13 14/26/14 37/27/14 36/28/13 

vn 0.5 0 0.866025
v 74.5 711 129.038
f 14/25/14 13/26/15 38/27/15 37/28/14 

vn 0.707107 0 0.707107
v 105.359 711 105.359
f 13/25/15 12/26/16 39/27/16 38/28/15 

vn 0.866025 0 0.5
v 129.038 711 74.5
f 12/25/16 11/26/17 40/27/17 39/28/16 

vn 0.965926 0 0.258819
v 143.923 711 38.564
f 11/25/17 10/26/18 41/27/18 40/28/17 

vn 1 0 3.63936e-16
v 149 711 -0
f 10/25/18 9/26/19 42/27/19 41/28/18 

vn 0.965926 0 -0.258819
v 143.923 711 -38.564
f 9/25/19 8/26/20 43/27/20 42/28/19 

vn 0.866025 0 -0.5
v 129.038 711 -74.5
f 8/25/20 7/26/21 44/27/21 43/28/20 

vn 0.707107 0 -0.707107
v 105.359 711 -105.359
f 7/25/21 6/26/22 45/27/22 44/28/21 

vn 0.5 0 -0.866025
v 74.5 711 -129.038
f 6/25/22 5/26/23 46/27/23 45/28/22 

vn 0.258819 0 -0.965926
v 38.564 711 -143.923
f 5/25/23 4/26/24 47/27/24 46/28/23 

vn 2.23961e-16 0 -1
v 9.12362e-15 711 -149
f 4/25/24 3/26/25 48/27/25 47/28/24 

f 3/25/25 2/26/2 26/27/2 48/28/25 

vt 0.0141794 0.413212
vn -0.230283 0.456458 -0.859428
v -13.0704 903 -48.7793
vt 0.00480575 0.570262
v -5.63993e-15 903 -50.5
vt -0.00480575 0.570262
vn 2.58494e-16 0.456458 -0.889745
vt -0.0141794 0.413212
f 26/29/26 49/30/26 50/31/27 48/32/27 

vn -0.444873 0.456458 -0.770542
v -25.25 903 -43.7343
f 25/29/28 51/30/28 49/31/26 26/32/26 

vn -0.629145 0.456458 -0.629145
v -35.7089 903 -35.7089
f 27/29/29 52/30/29 51/31/28 25/32/28 

vn -0.770542 0.456458 -0.444873
v -43.7343 903 -25.25
f 28/29/30 53/30/30 52/31/29 27/32/29 

vn -0.859428 0.456458 -0.230283
v -48.7793 903 -13.0704
f 29/29/31 54/30/31 53/31/30 28/32/30 

vn -0.889745 0.456458 -2.23563e-16
v -50.5 903 -3.94795e-14
f 30/29/32 55/30/32 54/31/31 29/32/31 

vn -0.859428 0.456458 0.230283
v -48.7793 903 13.0704
f 31/29/33 56/30/33 55/31/32 30/32/32 

vn -0.770542 0.456458 0.444873
v -43.7343 903 25.25
f 32/29/34 57/30/34 56/31/33 31/32/33 

vn -0.629145 0.456458 0.629145
v -35.7089 903 35.7089
f 33/29/35 58/30/35 57/31/34 32/32/34 

vn -0.444873 0.456458 0.770542
v -25.25 903 43.7343
f 34/29/36 59/30/36 58/31/35 33/32/35 

vn -0.230283 0.456458 0.859428
v -13.0704 903 48.7793
f 35/29/37 60/30/37 59/31/36 34/32/36 

vn -3.28358e-16 0.456458 0.889745
v -1.69198e-14 903 50.5
f 36/29/38 61/30/38 60/31/37 35/32/37 

vn 0.230283 0.456458 0.859428
v 13.0704 903 48.7793
f 37/29/39 62/30/39 61/31/38 36/32/38 

vn 0.444873 0.456458 0.770542
v 25.25 903 43.7343
f 38/29/40 63/30/40 62/31/39 37/32/39 

vn 0.629145 0.456458 0.629145
v 35.7089 903 35.7089
f 39/29/41 64/30/41 63/31/40 38/32/40 

vn 0.770542 0.456458 0.444873
v 43.7343 903 25.25
f 40/29/42 65/30/42 64/31/41 39/32/41 

vn 0.859428 0.456458 0.230283
v 48.7793 903 13.0704
f 41/29/43 66/30/43 65/31/42 40/32/42 

vn 0.889745 0.456458 1.04795e-16
v 50.5 903 -3.38396e-14
f 42/29/44 67/30/44 66/31/43 41/32/43 

vn 0.859428 0.456458 -0.230283
v 48.7793 903 -13.0704
f 43/29/45 68/30/45 67/31/44 42/32/44 

vn 0.770542 0.456458 -0.444873
v 43.7343 903 -25.25
f 44/29/46 69/30/46 68/31/45 43/32/45 

vn 0.629145 0.456458 -0.629145
v 35.7089 903 -35.7089
f 45/29/47 70/30/47 69/31/46 44/32/46 

vn 0.444873 0.456458 -0.770542
v 25.25 903 -43.7343
f 46/29/48 71/30/48 70/31/47 45/32/47 

vn 0.230283 0.456458 -0.859428
v 13.0704 903 -48.7793
f 47/29/49 72/30/49 71/31/48 46/32/48 

f 48/29/27 50/30/27 72/31/49 47/32/49 

vt 0.0260345 0.0260345
vn 0 1 -0
vt 0.0184092 0.0318856
vt 0.00952928 0.0355638
vt -4.11194e-18 0.0368183
vt -0.00952928 0.0355638
vt -0.0184092 0.0318856
vt -0.0260345 0.0260345
vt -0.0318856 0.0184092
vt -0.0355638 0.00952928
vt -0.0368183 2.87836e-17
vt -0.0355638 -0.00952928
vt -0.0318856 -0.0184092
vt -0.0260345 -0.0260345
vt -0.0184092 -0.0318856
vt -0.00952928 -0.0355638
vt -1.23358e-17 -0.0368183
vt 0.00952928 -0.0355638
vt 0.0184092 -0.0318856
vt 0.0260345 -0.0260345
vt 0.0318856 -0.0184092
vt 0.0355638 -0.00952928
vt 0.0368183 2.46716e-17
vt 0.0355638 0.00952928
vt 0.0318856 0.0184092
f 70/33/50 71/34/50 72/35/50 50/36/50 49/37/50 51/38/50 52/39/50 53/40/50 54/41/50 55/42/50 56/43/50 57/44/50 58/45/50 59/46/50 60/47/50 61/48/50 62/49/50 63/50/50 64/51/50 65/52/50 66/53/50 67/54/50 68/55/50 69/56/50 

